<svg width="24" height="24" viewBox="0 0 24 24" fill="none" xmlns="http://www.w3.org/2000/svg">
<g id="coca-cola-6 1">
<rect width="24" height="24" rx="4" fill="#E41F2B"/>
<g id="Group 1217">
<path id="Vector" d="M0.012207 8H23.9876V16.784H0.012207V8Z" fill="#E41F2B"/>
<g id="Group">
<path id="Vector_2" d="M21.6134 10.1063C21.6227 10.0481 21.6576 9.99914 21.6833 9.95021C21.7392 9.83837 21.7951 9.72886 21.8254 9.6077C21.837 9.55644 21.858 9.49353 21.8114 9.45392C21.7578 9.40732 21.6996 9.44693 21.6506 9.47489C21.5178 9.55178 21.4013 9.64731 21.2872 9.74517C20.9377 10.0411 20.6255 10.3766 20.3389 10.7354C19.8076 11.4018 19.3393 12.1101 18.9106 12.844C18.8244 12.9908 18.7382 13.1376 18.6636 13.3054C18.7289 13.3054 18.7661 13.2681 18.8034 13.2401C19.0108 13.0817 19.2112 12.9163 19.4022 12.7415C19.7121 12.4596 20.0103 12.166 20.2993 11.8608C20.5159 11.6324 20.7233 11.3971 20.9167 11.1478C21.0076 11.0313 21.0798 11.0057 21.2452 11.036C21.201 11.1408 21.1287 11.227 21.0588 11.3132C20.6627 11.8025 20.2387 12.2662 19.7843 12.7019C19.3906 13.077 18.9712 13.4242 18.5215 13.7294C18.4376 13.7853 18.3794 13.8506 18.3374 13.9461C18.2233 14.2047 18.1161 14.468 18.0299 14.7383C17.9996 14.8338 17.9739 14.9317 17.9576 15.0319C17.946 15.0971 17.9483 15.1624 17.9646 15.2276C17.9972 15.3511 18.0811 15.393 18.1906 15.3255C18.3118 15.2532 18.405 15.146 18.4935 15.0389C18.7265 14.7616 18.9176 14.454 19.1203 14.1558C19.3929 13.7574 19.6841 13.3753 20.036 13.0421C20.22 12.8673 20.4227 12.7182 20.6418 12.5924C20.7606 12.5248 20.8934 12.4899 21.0309 12.4875C21.194 12.4852 21.3268 12.5411 21.4153 12.6833C21.42 12.6926 21.4316 12.6972 21.4386 12.7019C21.4456 12.6996 21.4503 12.6996 21.4526 12.6996C21.5108 12.5598 21.625 12.5458 21.7578 12.5528C21.9 12.5621 22.0444 12.5528 22.1889 12.5551C22.2704 12.5574 22.2797 12.5714 22.2378 12.6437L21.6926 13.5663C21.385 14.0882 21.0751 14.6078 20.7839 15.1391C20.7559 15.188 20.714 15.2462 20.7653 15.2975C20.8165 15.3511 20.8748 15.3091 20.9237 15.2789C21.0565 15.1973 21.173 15.0948 21.2778 14.9783C21.4759 14.7593 21.6576 14.5263 21.83 14.2886C21.886 14.2117 22.0001 14.1768 22.0863 14.2094C22.1143 14.221 22.1213 14.2397 22.1096 14.263C22.1003 14.284 22.0863 14.3026 22.0724 14.3236C21.8254 14.701 21.5458 15.0528 21.2336 15.379C21.0635 15.5538 20.8841 15.7216 20.6721 15.8474C20.5579 15.9149 20.4391 15.9685 20.3062 15.9918C20.0826 16.0314 19.9125 15.9196 19.8938 15.6959C19.8892 15.6307 19.8799 15.5678 19.8729 15.5002C19.817 15.5002 19.796 15.5421 19.7657 15.5701C19.6026 15.7146 19.4302 15.845 19.2321 15.9429C19.1273 15.9942 19.0178 16.0128 18.9036 15.9942C18.7242 15.9639 18.5984 15.8264 18.5727 15.6377C18.5588 15.5421 18.5658 15.4466 18.5658 15.3394C18.5145 15.3581 18.4935 15.3954 18.4632 15.4256C18.3025 15.5957 18.137 15.7588 17.9367 15.88C17.8458 15.9359 17.7479 15.9732 17.6454 15.9942C17.3984 16.0431 17.1678 15.8544 17.1235 15.5794C17.0955 15.3977 17.1212 15.2229 17.1631 15.0482C17.2214 14.7989 17.3099 14.5566 17.3915 14.3142C17.4008 14.2886 17.4101 14.263 17.4171 14.2374C17.445 14.1442 17.4404 14.1418 17.3402 14.1535C17.3285 14.1558 17.3169 14.1558 17.3052 14.1581C17.035 14.1768 17.0862 14.1558 16.9511 14.3725C16.7391 14.7127 16.5107 15.0389 16.2311 15.3301C16.0168 15.5538 15.7791 15.7425 15.5065 15.8893C15.397 15.9499 15.2782 15.9848 15.1523 15.9988C14.8984 16.0244 14.712 15.8916 14.6561 15.6423C14.6048 15.4117 14.6398 15.1857 14.7073 14.9643C14.8192 14.6032 14.9823 14.263 15.1966 13.9508C15.4203 13.6269 15.658 13.317 15.9492 13.0514C16.1799 12.8394 16.4338 12.6623 16.7251 12.5481C16.8276 12.5085 16.9324 12.4852 17.042 12.4875C17.3262 12.4899 17.4683 12.6297 17.4846 12.9163C17.4963 13.1213 17.459 13.317 17.3868 13.5081C17.3449 13.6199 17.2983 13.7318 17.2447 13.8389C17.2307 13.8646 17.2027 13.8949 17.2214 13.9251C17.2447 13.9624 17.2866 13.9345 17.3192 13.9321C17.3472 13.9321 17.3728 13.9228 17.3984 13.9182C17.5126 13.8972 17.5872 13.8343 17.6408 13.7271C17.967 13.0794 18.3351 12.4526 18.7498 11.8561C19.2578 11.1268 19.8333 10.4558 20.5043 9.87332C20.7792 9.63566 21.0565 9.39567 21.3943 9.2419C21.5272 9.18132 21.6623 9.13705 21.8091 9.14404C21.9815 9.15103 22.0607 9.23025 22.07 9.40499C22.077 9.53547 22.0467 9.65896 22.0025 9.78012C21.9792 9.8407 21.9489 9.90128 21.9209 9.95953C21.8557 10.0853 21.7718 10.125 21.6134 10.1063ZM19.6259 15.3022C19.6888 15.2998 19.7494 15.2532 19.8076 15.1996C20.0197 15.0086 20.1851 14.7756 20.3342 14.5356C20.6301 14.0649 20.9144 13.5896 21.2056 13.1166C21.2289 13.077 21.2545 13.0374 21.2685 12.9932C21.2965 12.9046 21.2452 12.8464 21.152 12.8603C21.0705 12.872 20.9936 12.9023 20.9307 12.9582C20.8165 13.0631 20.693 13.1586 20.5882 13.2727C20.4111 13.4685 20.2387 13.6688 20.0896 13.8855C19.8682 14.2047 19.6608 14.5333 19.5257 14.9014C19.4977 14.9783 19.4721 15.0575 19.4675 15.1367C19.4605 15.2439 19.5141 15.3045 19.6259 15.3022ZM16.2265 13.6339C16.1682 13.6852 16.1309 13.7551 16.0867 13.818C15.8816 14.1115 15.6952 14.4144 15.5694 14.7523C15.5345 14.8432 15.5112 14.9387 15.5042 15.0342C15.4879 15.2416 15.63 15.3488 15.8234 15.2742C15.9189 15.2369 16.0005 15.1787 16.075 15.1111C16.3546 14.8595 16.569 14.5542 16.7577 14.2327C16.8183 14.1302 16.8159 14.1279 16.7041 14.0696C16.548 13.9881 16.4082 13.8879 16.3057 13.7387C16.2824 13.7038 16.2684 13.6619 16.2265 13.6339ZM17.24 13.0887V13.0421C17.2284 12.844 17.1095 12.7695 16.9231 12.8394C16.8113 12.8813 16.7181 12.9489 16.6412 13.0374C16.5643 13.126 16.5084 13.2262 16.5014 13.3496C16.4828 13.6362 16.6901 13.797 16.8905 13.8832C16.9418 13.9042 16.9697 13.8762 16.9907 13.8343C17.0536 13.7154 17.1188 13.5943 17.1585 13.4638C17.1957 13.3403 17.2447 13.2192 17.24 13.0887ZM10.8139 10.9568C10.8489 10.8519 10.9281 10.8426 11.0213 10.8472C11.1681 10.8519 11.3172 10.8496 11.464 10.8496C11.6038 10.8496 11.6108 10.8612 11.5362 10.9847C11.3755 11.255 11.2124 11.5229 11.0493 11.7932C10.737 12.3128 10.4248 12.8301 10.1126 13.3496C10.0916 13.3869 10.0707 13.4242 10.066 13.4685C10.0567 13.557 10.1033 13.5966 10.1848 13.564C10.2268 13.5477 10.2664 13.5197 10.306 13.4941C10.532 13.3403 10.7137 13.1376 10.8885 12.9279C10.9724 12.8277 11.0539 12.7229 11.1378 12.6204C11.1914 12.5528 11.3335 12.5155 11.4104 12.5481C11.4314 12.5574 11.4384 12.5761 11.4267 12.5947C11.4104 12.6204 11.3918 12.646 11.3731 12.6716C11.1425 12.9838 10.9071 13.2937 10.6369 13.571C10.3945 13.8203 10.1429 14.0673 9.82137 14.2187C9.71885 14.2676 9.61167 14.3073 9.4975 14.2909C9.33207 14.2676 9.22023 14.1442 9.20625 13.9648C9.20159 13.9158 9.20625 13.8646 9.20625 13.804C9.15034 13.8226 9.12937 13.8622 9.09908 13.8902C8.96394 14.0207 8.81482 14.1302 8.64473 14.2117C8.53056 14.2653 8.41173 14.2909 8.28359 14.2863C8.05758 14.277 7.91778 14.1395 7.90613 13.9112C7.89914 13.79 7.91545 13.6712 7.93875 13.5523C7.94574 13.5197 7.96438 13.4871 7.94574 13.4428C7.82458 13.5523 7.7174 13.6688 7.59158 13.7667C7.40286 13.9158 7.2118 14.0626 6.99045 14.1651C6.79007 14.256 6.58504 14.3212 6.35903 14.284C6.08409 14.2374 5.84876 14.016 5.81847 13.7085C5.79284 13.4382 5.85575 13.1842 5.95128 12.9372C6.03283 12.7229 6.13302 12.5178 6.26816 12.2965C6.14933 12.3245 6.05846 12.3454 5.96526 12.3664C5.92565 12.3757 5.91167 12.4083 5.89536 12.4386C5.65771 12.8557 5.3618 13.2285 5.03327 13.5756C4.87017 13.7481 4.69776 13.9088 4.50437 14.0463C4.3669 14.1418 4.22244 14.2234 4.05934 14.2676C3.6982 14.3678 3.40229 14.1605 3.37433 13.7853C3.35802 13.564 3.39297 13.3496 3.46054 13.1423C3.61432 12.6809 3.8613 12.2709 4.16419 11.8911C4.37855 11.6231 4.61621 11.3785 4.88881 11.1711C5.09385 11.015 5.31287 10.8822 5.55985 10.8053C5.6647 10.7727 5.77187 10.7517 5.88138 10.768C6.13069 10.8006 6.28214 10.9661 6.29612 11.22C6.3101 11.4787 6.23554 11.7187 6.13535 11.9517C6.11904 11.9889 6.08875 12.0239 6.09807 12.0775C6.16098 12.0821 6.21224 12.0565 6.2635 12.0309C6.46155 11.9353 6.63163 11.8025 6.79706 11.6604C6.98579 11.4973 7.15122 11.3132 7.34694 11.1595C7.53333 11.0127 7.72905 10.8799 7.95739 10.8053C8.10418 10.7564 8.25563 10.754 8.40474 10.789C8.65172 10.8472 8.78686 11.0989 8.72628 11.3785C8.67968 11.5928 8.57483 11.7769 8.42571 11.9353C8.37678 11.9866 8.32087 12.0285 8.2533 12.0495C8.07389 12.1054 7.93875 11.9843 7.97836 11.8025C8.02729 11.5719 8.16243 11.4204 8.39542 11.3692C8.45367 11.3552 8.50027 11.3459 8.49794 11.2713C8.49561 11.1991 8.456 11.1432 8.38377 11.1315C8.31854 11.1199 8.2533 11.1315 8.19039 11.1571C8.05059 11.2131 7.94108 11.3132 7.83157 11.4134C7.33063 11.8748 6.98113 12.4363 6.73415 13.0677C6.68755 13.1842 6.65493 13.303 6.66425 13.4312C6.68056 13.6968 6.84133 13.8156 7.09763 13.7411C7.28869 13.6852 7.44246 13.5663 7.58692 13.4358C7.96438 13.0933 8.28359 12.6972 8.58648 12.2872C8.83812 11.947 9.10607 11.6185 9.41595 11.3296C9.63963 11.1199 9.87263 10.9195 10.1709 10.8146C10.2291 10.7937 10.2897 10.7797 10.3526 10.7727C10.4924 10.7564 10.6136 10.7937 10.7161 10.8892C10.744 10.9078 10.7627 10.9404 10.8139 10.9568ZM10.5041 11.1268C10.4621 11.1245 10.4155 11.1432 10.3689 11.1641C10.2478 11.22 10.1685 11.3202 10.08 11.4134C9.66526 11.8585 9.31576 12.3524 9.0152 12.879C8.91967 13.0467 8.83113 13.2215 8.80084 13.4172C8.77987 13.5593 8.85909 13.6246 8.9919 13.5733C9.10374 13.5314 9.19228 13.4568 9.26916 13.3683C9.45556 13.1539 9.61866 12.9233 9.77244 12.6856C10.0637 12.2313 10.3386 11.7676 10.6042 11.2993C10.6718 11.1874 10.6369 11.1268 10.5041 11.1268ZM5.00298 11.8934C4.99599 11.8957 4.98667 11.8981 4.98434 11.9027C4.75368 12.2243 4.53699 12.5551 4.38554 12.9209C4.32962 13.0561 4.28535 13.1982 4.29001 13.3496C4.29467 13.5151 4.39486 13.592 4.56029 13.557C4.68378 13.5314 4.77931 13.4615 4.87017 13.3799C5.14278 13.133 5.35248 12.8347 5.54587 12.5272C5.56917 12.4922 5.59247 12.4549 5.61344 12.4176C5.65305 12.3454 5.65072 12.3361 5.57849 12.3081C5.56684 12.3035 5.55752 12.3012 5.54587 12.2965C5.34316 12.2173 5.16608 12.1054 5.04259 11.919C5.03094 11.9074 5.02162 11.8957 5.00298 11.8934ZM5.27326 11.6884C5.27093 11.7396 5.28724 11.7909 5.31753 11.8375C5.41539 11.9866 5.56451 12.0565 5.73226 12.0891C5.78352 12.0984 5.81148 12.0728 5.83245 12.0285C5.9373 11.8258 6.0072 11.6115 6.02118 11.3855C6.03283 11.2037 5.94895 11.0896 5.77653 11.1105C5.53655 11.1408 5.27326 11.4391 5.27326 11.6884Z" fill="white"/>
<path id="Vector_3" d="M16.6645 9.42846C16.5829 9.37487 16.5084 9.38885 16.4361 9.39817C16.2544 9.42147 16.096 9.50069 15.9375 9.58923C15.5368 9.81058 15.1849 10.0972 14.8541 10.4094C14.423 10.8148 14.0246 11.2482 13.6774 11.7281C13.2953 12.2524 12.9528 12.8023 12.6965 13.4011C12.5334 13.7855 12.4123 14.1816 12.3587 14.5963C12.333 14.8037 12.3587 15.0087 12.4798 15.1882C12.615 15.3909 12.8503 15.4841 13.0903 15.4351C13.2208 15.4072 13.3419 15.3536 13.4538 15.2837C13.7613 15.088 14.0176 14.834 14.2366 14.5451C14.4417 14.2748 14.6141 13.9859 14.7306 13.6644C14.7865 13.5059 14.8261 13.3451 14.8378 13.1774C14.8401 13.1541 14.8401 13.1308 14.8378 13.1075C14.8238 12.8698 14.6677 12.7883 14.4626 12.9164C14.3089 13.012 14.197 13.1541 14.0992 13.3032C13.9803 13.4873 13.8988 13.69 13.8499 13.902C13.8359 13.9603 13.8102 13.9952 13.7543 14.0232C13.4538 14.1676 13.1951 14.3703 12.9575 14.601C12.9458 14.6127 12.9342 14.622 12.9225 14.6313C12.9179 14.636 12.9086 14.6336 12.9016 14.636C12.8759 14.6196 12.8853 14.594 12.8876 14.573C12.9458 14.1653 13.06 13.7762 13.2813 13.4244C13.505 13.0679 13.7986 12.786 14.1784 12.5996C14.3485 12.5157 14.5256 12.4621 14.7189 12.5087C14.8681 12.546 14.9729 12.6368 15.0312 12.7813C15.0941 12.9374 15.0871 13.1005 15.0731 13.2636C15.0475 13.5735 14.9216 13.8484 14.7818 14.1187C14.6397 14.396 14.472 14.6569 14.2739 14.8969C13.9407 15.3047 13.5516 15.6472 13.0716 15.8708C12.799 15.999 12.5078 16.0479 12.2096 15.978C11.8251 15.8848 11.5828 15.6308 11.457 15.2674C11.3125 14.8526 11.3335 14.4309 11.4686 14.0208C11.648 13.4686 11.9043 12.9514 12.1956 12.4481C12.4193 12.0637 12.6686 11.7002 12.9505 11.3577C13.3955 10.8148 13.8965 10.3302 14.4673 9.92008C14.8354 9.6568 15.2199 9.42613 15.6369 9.25138C15.9049 9.13954 16.1845 9.08129 16.4757 9.08362C16.6318 9.08595 16.7763 9.13022 16.8975 9.22575C16.9487 9.26536 16.9883 9.26769 17.0443 9.24672C17.3006 9.14653 17.5685 9.09993 17.8411 9.09061C18.2302 9.07663 18.596 9.16983 18.9362 9.3539C19.3113 9.55661 19.6864 9.76398 20.0592 9.96901C20.0732 9.976 20.0872 9.98299 20.0988 9.99231C20.1618 10.0343 20.1618 10.0412 20.1082 10.0972C19.9614 10.2463 19.8123 10.3931 19.6678 10.5468C19.6189 10.5981 19.5769 10.5934 19.5257 10.5608L18.9944 10.2463C18.7614 10.1065 18.5284 9.96435 18.2954 9.82922C18.0392 9.6801 17.7619 9.57991 17.4706 9.51933C17.3751 9.49836 17.2772 9.49603 17.1817 9.517C17.1375 9.52632 17.1072 9.54496 17.1072 9.60088C17.0978 10.0762 16.9301 10.5049 16.7017 10.9103C16.527 11.2202 16.301 11.4905 16.0004 11.6932C15.8699 11.7794 15.7301 11.847 15.581 11.8889C15.3201 11.9658 15.1127 11.8167 15.0964 11.5441C15.0871 11.374 15.1267 11.2132 15.1896 11.0571C15.3643 10.6237 15.6556 10.2719 15.9888 9.9527C16.1752 9.77563 16.3779 9.61952 16.5946 9.48205C16.6109 9.46341 16.6295 9.45176 16.6645 9.42846ZM16.8439 9.81058C16.8485 9.62884 16.8439 9.62185 16.7181 9.69175C16.4804 9.82456 16.2707 9.99697 16.0773 10.1904C15.7931 10.4723 15.5624 10.7915 15.3923 11.1526C15.3504 11.2435 15.3154 11.339 15.3131 11.4416C15.3108 11.6047 15.4296 11.6909 15.5834 11.6419C15.7651 11.586 15.9142 11.4765 16.054 11.3484C16.294 11.1247 16.4734 10.8591 16.6179 10.5701C16.7437 10.3208 16.8252 10.0529 16.8439 9.81058ZM10.7743 16.1434C10.6555 16.0782 10.5553 16.02 10.4504 15.9687C9.99608 15.7497 9.52077 15.6215 9.0105 15.6472C8.74256 15.6611 8.50024 15.738 8.29986 15.9221C8.26957 15.9501 8.24161 15.9827 8.21365 16.0153C8.1321 16.1132 8.12977 16.1155 8.05988 16.013C7.94105 15.8405 7.78727 15.7077 7.6032 15.6052C7.33758 15.4561 7.04867 15.3909 6.74577 15.3652C6.18425 15.3186 5.63903 15.4142 5.09848 15.5446C4.50667 15.6891 3.91485 15.8336 3.31372 15.9384C3.03412 15.9873 2.7522 16.0223 2.46794 15.9757C1.96466 15.8918 1.53828 15.6798 1.2447 15.2487C1.11655 15.0623 1.06296 14.848 1.02569 14.629C0.939476 14.128 1.00705 13.6387 1.16082 13.1611C1.34955 12.5716 1.64546 12.038 2.00427 11.5348C2.32581 11.0827 2.69861 10.6773 3.10402 10.3045C3.59798 9.85019 4.14319 9.46574 4.77461 9.22109C5.03324 9.1209 5.29886 9.05566 5.58078 9.05566C5.99785 9.05799 6.23784 9.31895 6.17959 9.7267C6.14464 9.96901 6.03979 10.1857 5.86271 10.3604C5.79747 10.4234 5.72291 10.47 5.62971 10.4863C5.50855 10.5072 5.40604 10.4373 5.38041 10.3162C5.3408 10.1275 5.44099 9.91076 5.61573 9.81291C5.68796 9.7733 5.76252 9.74068 5.84407 9.73136C5.89999 9.72437 5.92096 9.68942 5.92562 9.63583C5.93727 9.50069 5.86271 9.41215 5.72524 9.40283C5.62738 9.39584 5.53185 9.41448 5.43866 9.44477C5.0845 9.5636 4.77461 9.76398 4.49269 10.0063C3.84728 10.5632 3.30906 11.2155 2.84073 11.9239C2.53085 12.3922 2.29086 12.8978 2.14174 13.4407C2.04854 13.7809 1.97864 14.128 2.00427 14.4868C2.02524 14.7851 2.13009 15.0437 2.3561 15.2487C2.48425 15.3629 2.63337 15.4351 2.79414 15.4817C2.93859 15.5237 3.08771 15.5516 3.24149 15.5586C3.72612 15.5843 4.20144 15.512 4.67209 15.4025C5.28488 15.2581 5.89533 15.1136 6.50811 14.9691C6.95547 14.862 7.40748 14.7874 7.86649 14.7967C8.65402 14.813 9.38097 15.0227 10.038 15.4654C10.271 15.6215 10.4807 15.8056 10.6788 16.0036C10.716 16.0363 10.7533 16.0712 10.7743 16.1434ZM23.5961 9.12323C23.6078 9.16284 23.5891 9.18381 23.5752 9.20711C23.2327 9.7733 22.7806 10.2276 22.1982 10.5468C21.8207 10.7542 21.4223 10.8987 20.9889 10.9383C20.8095 10.9546 20.6324 10.9453 20.4553 10.908C20.3668 10.8894 20.3598 10.873 20.4134 10.8055C20.5485 10.6354 20.6907 10.47 20.8398 10.3115C20.8771 10.2719 20.9213 10.2742 20.9679 10.2742C21.138 10.2742 21.3081 10.2812 21.4805 10.2579C21.872 10.2043 22.2284 10.0599 22.5733 9.87581C22.9274 9.68476 23.242 9.44011 23.5356 9.16517C23.5472 9.15352 23.5589 9.1442 23.5705 9.13488C23.5752 9.12789 23.5822 9.12789 23.5961 9.12323ZM12.4542 10.8474C12.5427 10.8474 12.6336 10.8451 12.7222 10.8474C12.7804 10.8497 12.7921 10.8684 12.7594 10.9196C12.6569 11.0897 12.5521 11.2552 12.4472 11.4252C12.4216 11.4672 12.389 11.4835 12.3424 11.4812C12.1676 11.4812 11.9929 11.4835 11.8181 11.4788C11.7389 11.4788 11.7273 11.4579 11.7692 11.388C11.8671 11.2249 11.9672 11.0641 12.0674 10.901C12.0931 10.8591 12.1257 10.8428 12.1746 10.8451C12.2678 10.8474 12.361 10.8474 12.4542 10.8474Z" fill="white"/>
</g>
</g>
</g>
</svg>
